#!OML:ASF F:\VICON\USERDATA\INSTALL\rory3\rory3.ASF
:FULLY-SPECIFIED
:DEGREES
86
root -1.70119 18.0666 -35.6015 1.7584 2.08508 -4.54961
lowerback 5.93127 -0.0435592 -0.15926
upperback 0.117237 0.0844372 4.58148
thorax -3.21735 0.0796264 4.83982
lowerneck -14.653 -6.4287 -15.9746
upperneck 25.2282 -7.46112 9.24612
head 11.6478 -3.83619 5.02804
rclavicle 1.11319e-014 -1.59028e-015
rhumerus -31.3846 -11.6485 -76.4806
rradius 28.2118
rwrist -12.0129
rhand -11.5381 18.4921
rfingers 7.12502
rthumb 14.5021 -10.9811
lclavicle 1.11319e-014 -1.59028e-015
lhumerus -32.3384 13.1356 83.6701
lradius 29.1523
lwrist -7.68716
lhand -0.267775 31.8294
lfingers 7.12502
lthumb 25.3339 60.1667
rfemur -6.37517 -0.941945 28.7424
rtibia 29.6955
rfoot -22.5501 -7.041
rtoes 26.8637
lfemur -23.8403 -3.128 -12.4059
ltibia 56.4295
lfoot -8.74155 -2.5378
ltoes -10.3288
87
root -1.72034 18.0574 -35.5857 1.44699 2.36379 -5.02553
lowerback 6.16659 -0.0591872 0.207911
upperback 0.39555 0.0905985 4.77122
thorax -3.0616 0.0738888 4.82915
lowerneck -14.96 -6.46912 -16.0428
upperneck 25.2593 -7.44123 9.22426
head 11.7214 -3.82824 5.03041
rclavicle 1.23246e-014 -3.89618e-014
rhumerus -31.3558 -11.5356 -76.513
rradius 28.234
rwrist -12.0996
rhand -11.4458 18.5542
rfingers 7.12502
rthumb 14.591 -10.9125
lclavicle 1.23246e-014 -3.89618e-014
lhumerus -32.2451 12.9567 83.8445
lradius 29.6339
lwrist -7.55373
lhand -0.104735 32.1047
lfingers 7.12502
lthumb 25.4901 60.4198
rfemur -5.89103 -0.960661 29.41
rtibia 29.4854
rfoot -23.0459 -6.96402
rtoes 30.4653
lfemur -24.7428 -3.2184 -11.6712
ltibia 57.9564
lfoot -7.66052 -3.1602
ltoes 3.70243
88
root -1.7261 18.0505 -35.5827 1.35109 1.7756 -5.4826
lowerback 6.31491 0.188212 0.645518
upperback 0.620212 0.450924 4.91617
thorax -2.93979 0.245525 4.69977
lowerneck -15.045 -6.45005 -16.2015
upperneck 25.1743 -7.38126 9.34073
head 11.709 -3.79851 5.10849
rclavicle -7.45443e-015 -1.11319e-014
rhumerus -31.3084 -11.4859 -76.4838
rradius 28.2707
rwrist -11.6344
rhand -10.3184 20.9641
rfingers 7.12502
rthumb 15.677 -8.42079
lclavicle -7.45443e-015 -1.11319e-014
lhumerus -32.239 12.6808 84.0325
lradius 30.1269
lwrist -7.25715
lhand -0.0635559 32.3627
lfingers 7.12502
lthumb 25.5295 60.6721
rfemur -5.72077 -0.717918 29.889
rtibia 29.3202
rfoot -22.4973 -7.20219
rtoes 25.5823
lfemur -25.7046 -2.62887 -11.0557
ltibia 59.3207
lfoot -6.95119 -3.49527
ltoes -8.76823
89
root -1.72574 18.0472 -35.5627 1.33603 1.11603 -5.68848
lowerback 6.21035 0.45424 0.915434
upperback 0.819718 0.811574 4.93874
thorax -2.69907 0.41888 4.53687
lowerneck -14.9766 -6.44564 -16.2227
upperneck 25.0063 -7.38841 9.40777
head 11.6352 -3.79387 5.13283
rclavicle -4.57205e-015 2.38542e-015
rhumerus -31.2579 -11.1945 -76.6974
rradius 28.5059
rwrist -11.8315
rhand -9.9795 18.5978
rfingers 7.12502
rthumb 16.0034 -10.7612
lclavicle -4.57205e-015 2.38542e-015
lhumerus -32.1404 12.4903 84.0779
lradius 30.0894
lwrist -7.0001
lhand -0.27416 32.3632
lfingers 7.12502
lthumb 25.3277 60.7014
rfemur -5.53349 -0.628821 30.0233
rtibia 29.1398
rfoot -22.6307 -6.46207
rtoes 28.3286
lfemur -26.4859 -2.01916 -10.772
ltibia 60.4666
lfoot -6.66645 -3.65581
ltoes -8.85125
90
root -1.71707 18.0436 -35.5391 1.39675 0.226583 -5.73878
lowerback 6.12377 0.804683 1.10297
upperback 0.894932 1.28289 4.89515
thorax -2.60182 0.65079 4.34433
lowerneck -14.7495 -6.42507 -16.2002
upperneck 24.8807 -7.39621 9.40984
head 11.5417 -3.79791 5.12812
rclavicle 9.83984e-015 1.82882e-014
rhumerus -31.3832 -11.8616 -76.2482
rradius 28.3467
rwrist -9.29524
rhand -10.5693 16.3508
rfingers 7.12502
rthumb 15.4354 -13.0529
lclavicle 9.83984e-015 1.82882e-014
lhumerus -32.3555 12.2795 84.0918
lradius 30.2802
lwrist -6.88452
lhand -0.285879 32.4336
lfingers 7.12502
lthumb 25.3165 60.7734
rfemur -5.39561 -0.633777 29.8848
rtibia 28.9748
rfoot -22.4171 -5.74341
rtoes 27.4636
lfemur -27.1716 -1.20001 -10.737
ltibia 61.4245
lfoot -6.80536 -3.91133
ltoes -6.12548
91
root -1.71879 18.037 -35.5077 1.13388 0.15833 -5.93466
lowerback 6.34545 0.874518 1.33528
upperback 0.912382 1.40198 4.95707
thorax -2.71213 0.708574 4.26529
lowerneck -14.2603 -6.3846 -16.2598
upperneck 24.7724 -7.40415 9.42649
head 11.4076 -3.81537 5.1474
rclavicle -2.42517e-014 2.38542e-015
rhumerus -31.6554 -9.78382 -77.3876
rradius 28.6588
rwrist -15.0586
rhand -11.325 16.7261
rfingers 7.12502
rthumb 14.7074 -12.7322
lclavicle -2.42517e-014 2.38542e-015
lhumerus -32.9458 12.1385 84.0403
lradius 30.6835
lwrist -6.88188
lhand -0.202807 32.0701
lfingers 7.12502
lthumb 25.3961 60.3986
rfemur -4.88819 -0.854672 30.0783
rtibia 28.838
rfoot -22.5335 -5.45186
rtoes 28.1514
lfemur -27.6279 -1.01795 -10.4463
ltibia 62.1971
lfoot -7.34202 -4.45378
ltoes -8.3805
92
root -1.71473 18.0356 -35.4686 1.1083 -0.482806 -6.14239
lowerback 6.21627 1.13707 1.63049
upperback 0.986741 1.76228 4.96861
thorax -2.57786 0.884507 4.08052
lowerneck -13.9004 -6.35945 -16.3283
upperneck 24.6764 -7.43362 9.52679
head 11.3111 -3.83105 5.19571
rclavicle 9.93923e-016 3.97569e-015
rhumerus -31.698 -11.3786 -76.37
rradius 27.2689
rwrist -10.9112
rhand -8.55308 19.032
rfingers 7.12502
rthumb 17.3766 -10.2112
lclavicle 9.93923e-016 3.97569e-015
lhumerus -33.3538 11.8676 83.997
lradius 30.9594
lwrist -6.69751
lhand -0.215934 32.1668
lfingers 7.12502
lthumb 25.3835 60.4971
rfemur -4.59122 -0.722208 30.2073
rtibia 28.6701
rfoot -22.3593 -5.13898
rtoes 26.4685
lfemur -28.1653 -0.445418 -10.196
ltibia 62.778
lfoot -7.90275 -4.62673
ltoes -9.41969
93
root -1.72412 18.029 -35.4726 1.28012 -0.681051 -6.30155
lowerback 6.50907 1.2639 1.78585
upperback 0.90624 1.9597 4.94802
thorax -2.83107 0.982073 3.94828
lowerneck -13.8319 -6.31054 -16.3082
upperneck 24.6348 -7.41341 9.65854
head 11.2818 -3.80615 5.24645
rclavicle 1.44119e-014 5.56597e-015
rhumerus -31.753 -11.1631 -76.5351
rradius 27.1243
rwrist -10.9165
rhand -8.69438 18.9891
rfingers 7.12502
rthumb 17.2406 -10.2661
lclavicle 1.44119e-014 5.56597e-015
lhumerus -33.4391 11.5887 83.9475
lradius 30.8941
lwrist -6.59743
lhand -0.356754 32.8643
lfingers 7.12502
lthumb 25.2486 61.2137
rfemur -4.71968 -0.485223 30.4307
rtibia 28.492
rfoot -22.2601 -5.12488
rtoes 27.8997
lfemur -29.2554 -0.198104 -9.94594
ltibia 63.2205
lfoot -8.06009 -4.7708
ltoes -6.80811
94
root -1.72953 18.029 -35.4457 1.24695 -0.811229 -6.45703
lowerback 6.62625 1.33212 1.9981
upperback 0.950431 2.06818 4.92758
thorax -2.84878 1.03331 3.79509
lowerneck -13.7269 -6.25387 -16.2197
upperneck 24.5014 -7.37143 9.68602
head 11.2002 -3.7758 5.24633
rclavicle -1.09332e-015 4.13472e-014
rhumerus -31.8939 -10.928 -76.6961
rradius 26.9435
rwrist -11.064
rhand -8.65896 19.8329
rfingers 7.12502
rthumb 17.2747 -9.4193
lclavicle -1.09332e-015 4.13472e-014
lhumerus -33.5629 11.6172 83.7709
lradius 30.7672
lwrist -6.54875
lhand -0.489075 32.0237
lfingers 7.12502
lthumb 25.1218 60.3909
rfemur -4.49521 -0.51164 30.5992
rtibia 28.3458
rfoot -22.4592 -4.87753
rtoes 30.1517
lfemur -29.8307 -0.040174 -9.73445
ltibia 63.4373
lfoot -8.44247 -4.76143
ltoes -4.30424
